<svg xmlns="http://www.w3.org/2000/svg" viewBox="0 0 240.77 184.87"><defs><style>.cls-1,.cls-2,.cls-3{fill:none;}.cls-1,.cls-2,.cls-3,.cls-4{stroke:#fff;stroke-miterlimit:10;}.cls-1,.cls-4{stroke-width:3px;}.cls-2{stroke-width:4px;}.cls-4,.cls-6{fill:#fff;}.cls-5{fill:#ff4133;}</style></defs><title>Logo2</title><g id="Camada_2" data-name="Camada 2"><g id="Layer_1_copy" data-name="Layer 1 copy"><path class="cls-1" d="M30.38,66c-8.67-7.51-14-16.21-12.38-26.2"/><path class="cls-1" d="M111.39,16.4s6.36-23.2,40.36-11.7C176,14.2,182.5,40.95,171,68.45"/><path class="cls-2" d="M15.45,112.75c-2.22-15.45-1.35-48,36.65-57.12,41.53-10,54.29-37.77,55.49-38.66s6.29-1.13,10,1.79c5.73,3.94,6.09,19,32.22,31.86,9.95,4.91,19,13.73,21,17.87,3.87,5.47,14.35,33.45,9.58,46.59"/><ellipse class="cls-3" cx="110.54" cy="93.39" rx="12.16" ry="12.8"/><ellipse class="cls-3" cx="42.75" cy="85.44" rx="10.92" ry="12.11"/><ellipse class="cls-4" cx="21.11" cy="30.65" rx="9.8" ry="10.44" transform="matrix(0.25, -0.97, 0.97, 0.25, -13.89, 43.31)"/><path class="cls-5" d="M236.94,139.31l-29.05,6.52q-3.07.69-5.68-5.06a30.36,30.36,0,0,1-1.75-4.82,3.34,3.34,0,0,1,0-2.33q14.9-24.86,13.21-32.21A5.17,5.17,0,0,0,211.55,98a5.75,5.75,0,0,0-4.31-.33,15.49,15.49,0,0,0-5.27,2.3,17.17,17.17,0,0,0-3.8,3.28,25.16,25.16,0,0,1-6.75-7.71,10.32,10.32,0,0,1-1.08-2.69,7,7,0,0,1-.12-2.53q.18-2.46,5.52-5.8a37.75,37.75,0,0,1,11.83-4.8q19.6-4.4,23.66,13.22,1.79,7.8-1.61,17a63.67,63.67,0,0,1-9.07,16.61l17.51-4.68q1.52,4.6,2.31,8.05a11.64,11.64,0,0,1-.05,6.16A4.43,4.43,0,0,1,236.94,139.31Z"/><path class="cls-3" d="M60.63,94.7s-3.37,4.13,0,7,7-2.75,6.88-3.5-1.5,4,3.25,6.13,8.5-.12,9.38-4.81"/><path class="cls-6" d="M115.28,90.13a13.85,13.85,0,0,1-3.09-9.28A13.38,13.38,0,0,1,98.07,92.06a13.94,13.94,0,0,1,11.75,13.65A13.37,13.37,0,0,1,123,95,13.85,13.85,0,0,1,115.28,90.13Z"/><path class="cls-6" d="M46.8,82.42a14.45,14.45,0,0,1-2.63-8.91,13.29,13.29,0,0,1-4.07,7.93,10.53,10.53,0,0,1-7.93,2.83,11.57,11.57,0,0,1,7.35,4.8,14.41,14.41,0,0,1,2.64,8.31,13.2,13.2,0,0,1,4-7.48A10.54,10.54,0,0,1,53.35,87,11.68,11.68,0,0,1,46.8,82.42Z"/><path class="cls-6" d="M31.67,156.43q-1.76-1.33-5.86-1.33h-2v12.38h1.71q4.1,0,6-1.52t1.91-4.86Q33.43,157.76,31.67,156.43Z"/><path class="cls-6" d="M25.81,131.37h-2v12.48h.48q9.15,0,9.15-6.1,0-3.33-1.76-4.86T25.81,131.37Z"/><path class="cls-6" d="M0,111.67v73.19H195.33V111.67Zm48,66.47q-5.67,4.48-16.24,4.48H9.24a3.53,3.53,0,0,1-2.67-1.1,4,4,0,0,1-1-2.91v-61a2,2,0,0,1,.33-1.38,2,2,0,0,1,1.38-.33H29q22.29,0,22.29,17.24a16.52,16.52,0,0,1-8.57,15.05,16.93,16.93,0,0,1,7.81,5.91q3.14,4.19,3.14,11.86A14.66,14.66,0,0,1,48,178.15Zm86.35,4.1a52.2,52.2,0,0,1-6.57.47q-8.48,0-8.48-1.9l-2-38.2-11.62,38.68q-.38,1.14-6.48,1.14t-6.29-1l-12-39.15-1.33,38q-.1,1.43-3.62,2a41.17,41.17,0,0,1-5.86.52,34.79,34.79,0,0,1-4.53-.29q-4.57-.67-4.48-2.38l2.19-61.92q0-2.29,11.62-2.29a82.14,82.14,0,0,1,8.38.52q5,.52,5.53,2l10.67,30,9.34-30.1q.86-2.48,13.15-2.48a81.42,81.42,0,0,1,8.43.52q4.91.52,4.91,1.86L138,180.72Q138,181.77,134.31,182.24Zm50-6.32q-5.47,6.3-16.85,6.48a50.09,50.09,0,0,1-10-.93,18.06,18.06,0,0,1-7.82-3.61,8.07,8.07,0,0,1-3.33-6.48,21.59,21.59,0,0,1,1.39-7.55q1.39-3.75,3-5a50.4,50.4,0,0,0,6.07,3.8,16.92,16.92,0,0,0,8.24,2.41q3.93,0,3.94-3.06a3.31,3.31,0,0,0-1.11-2.45,16.22,16.22,0,0,0-4.07-2.45q-3-1.39-4.45-2.18a34.25,34.25,0,0,1-3.94-2.59,15.43,15.43,0,0,1-3.75-3.75q-3.7-5.28-3.7-13.43a18,18,0,0,1,6.07-13.75q6.06-5.6,15.88-5.6a50,50,0,0,1,12.32,1.44q5.65,1.44,5.83,3.75v.55a22.63,22.63,0,0,1-2,8.2q-2,5-2.87,5.51a23.64,23.64,0,0,0-10.6-3.06q-4.68,0-4.68,3.33,0,2,3.43,3.61.74.37,2.13,1t3.19,1.53a38.44,38.44,0,0,1,3.89,2.22,33.73,33.73,0,0,1,4.49,3.56q4.91,4.63,4.91,12.22Q189.81,169.63,184.35,175.93Z"/></g></g></svg>
